JUST TEENS PORN 2 TEEN LOVERS-SILVERDUST{HKRG}
IM SPLITTING THESE INTO SINGLE VIDEOS FROM THE SITE I RIPPED SO PPL ON LOWER SPEEDS CAN GRAB THEM TOO.
WATCH OUT FOR LOTS MORE
Video
ID                               : 2
Format                           : VC-1
Format profile                   : MP@ML
Codec ID                         : WMV3
Codec ID/Info                    : Windows Media Video 9
Codec ID/Hint                    : WMV3
Description of the codec         : Windows Media Video 9 - Professional
Duration                         : 19mn 47s
Bit rate mode                    : Variable
Bit rate                         : 2 500 Kbps
Width                            : 720 pixels
Height                           : 480 pixels
Display aspect ratio             : 4:3
Frame rate                       : 25.000 fps
Standard                         : NTSC
Bit depth                        : 8 bits
Scan type                        : Progressive
Compression mode                 : Lossy
Bits/(Pixel*Frame)               : 0.289
Stream size                      : 354 MiB (96%)

Audio
ID                               : 1
Format                           : WMA
Format version                   : Version 2
Codec ID                         : 161
Codec ID/Info                    : Windows Media Audio
Description of the codec         : Windows Media Audio 9.2 -  96 kbps, 44 kHz, stereo 2-pass CBR
Duration                         : 19mn 47s
Bit rate mode                    : Constant
Bit rate                         : 96.0 Kbps
Channel(s)                       : 2 channels
Sampling rate                    : 44.1 KHz
Bit depth                        : 16 bits
Stream size                      : 13.6 MiB (4%) 
http://img2.immage.de/11033image1456109.jpg 
http://img2.immage.de/1103a8b8eimage1458765.jpg
OR
[img]http://img2.immage.de/11033image1456109.jpg[/img]

[img]http://img2.immage.de/1103a8b8eimage1458765.jpg[/img]


OR 
http://www.leetleech.org/images/33088928520255893391.jpg
    	http://www.leetleech.org/images/29877128048200099357.png
    	http://www.leetleech.org/images/90611291827829571955.png
OR
 [URL=http://www.leetleech.org/][IMG]http://www.leetleech.org/images/33088928520255893391.jpg[/IMG][/URL]
        [URL=http://www.leetleech.org/][IMG]http://www.leetleech.org/images/29877128048200099357.png[/IMG][/URL]
        [URL=http://www.leetleech.org/][IMG]http://www.leetleech.org/images/90611291827829571955.png[/IMG][/URL]
NJOI
